<?xml version="1.0" encoding="UTF-8" standalone="no"?>
<svg
   xmlns:dc="http://purl.org/dc/elements/1.1/"
   xmlns:cc="http://creativecommons.org/ns#"
   xmlns:rdf="http://www.w3.org/1999/02/22-rdf-syntax-ns#"
   xmlns:svg="http://www.w3.org/2000/svg"
   xmlns="http://www.w3.org/2000/svg"
   xmlns:sodipodi="http://sodipodi.sourceforge.net/DTD/sodipodi-0.dtd"
   xmlns:inkscape="http://www.inkscape.org/namespaces/inkscape"
   width="50"
   height="60"
   version="1.1"
   id="svg4"
   sodipodi:docname="icon-rock.svg"
   inkscape:version="1.0.1 (3bc2e813f5, 2020-09-07)">
  <metadata
     id="metadata10">
    <rdf:RDF>
      <cc:Work
         rdf:about="">
        <dc:format>image/svg+xml</dc:format>
        <dc:type
           rdf:resource="http://purl.org/dc/dcmitype/StillImage" />
      </cc:Work>
    </rdf:RDF>
  </metadata>
  <defs
     id="defs8" />
  <sodipodi:namedview
     pagecolor="#ffffff"
     bordercolor="#666666"
     borderopacity="1"
     objecttolerance="10"
     gridtolerance="10"
     guidetolerance="10"
     inkscape:pageopacity="0"
     inkscape:pageshadow="2"
     inkscape:window-width="1920"
     inkscape:window-height="1053"
     id="namedview6"
     showgrid="false"
     inkscape:zoom="13.066667"
     inkscape:cx="25"
     inkscape:cy="30"
     inkscape:window-x="0"
     inkscape:window-y="27"
     inkscape:window-maximized="1"
     inkscape:current-layer="svg4" />
  <path
     fill="#3b4262"
     d="M 47.834076,15.5741 C 47.152357,5.2546267 37.497861,6.3087527 37.497861,6.3087527 33.423477,-2.3141771 27.057584,3.9315518 27.057584,3.9315518 22.166625,-4.5193018 16.035404,3.3120775 16.035404,3.3120775 5.4623936,1.9431157 5.8722743,12.318674 5.8722743,12.318674 5.6237974,15.617438 7.3620738,25.820919 7.3620738,25.820919 5.7936961,19.939737 2.3925359,24.821603 2.3925359,24.821603 -1.7912204,32.568856 1.3572154,36.809578 1.3572154,36.809578 7.016967,44.770971 19.077653,54.326936 19.077653,54.326936 23.445112,57.329984 21.597464,60.008 21.597464,60.008 l 26.415005,-5.238764 0.606327,-6.013745 C 52.634776,34.178724 47.834076,15.5741 47.834076,15.5741 Z"
     id="path2"
     style="stroke-width:1.1634" />
</svg>
