<?xml version="1.0" encoding="UTF-8" standalone="no"?>
<svg
   xmlns:dc="http://purl.org/dc/elements/1.1/"
   xmlns:cc="http://creativecommons.org/ns#"
   xmlns:rdf="http://www.w3.org/1999/02/22-rdf-syntax-ns#"
   xmlns:svg="http://www.w3.org/2000/svg"
   xmlns="http://www.w3.org/2000/svg"
   xmlns:sodipodi="http://sodipodi.sourceforge.net/DTD/sodipodi-0.dtd"
   xmlns:inkscape="http://www.inkscape.org/namespaces/inkscape"
   width="50"
   height="60"
   version="1.1"
   id="svg4"
   sodipodi:docname="icon-paper.svg"
   inkscape:version="1.0.1 (3bc2e813f5, 2020-09-07)">
  <metadata
     id="metadata10">
    <rdf:RDF>
      <cc:Work
         rdf:about="">
        <dc:format>image/svg+xml</dc:format>
        <dc:type
           rdf:resource="http://purl.org/dc/dcmitype/StillImage" />
      </cc:Work>
    </rdf:RDF>
  </metadata>
  <defs
     id="defs8" />
  <sodipodi:namedview
     pagecolor="#ffffff"
     bordercolor="#666666"
     borderopacity="1"
     objecttolerance="10"
     gridtolerance="10"
     guidetolerance="10"
     inkscape:pageopacity="0"
     inkscape:pageshadow="2"
     inkscape:window-width="1920"
     inkscape:window-height="1053"
     id="namedview6"
     showgrid="false"
     inkscape:zoom="13.066667"
     inkscape:cx="25"
     inkscape:cy="30"
     inkscape:window-x="0"
     inkscape:window-y="27"
     inkscape:window-maximized="1"
     inkscape:current-layer="svg4" />
  <path
     fill="#3b4262"
     d="m 48.304733,12.141198 a 3.033367,2.9983587 0 0 0 -1.278955,-0.203175 c -0.591726,0.04105 -1.068219,0.278082 -1.351624,0.666986 -1.665134,2.306746 -3.030252,6.662678 -4.130653,10.163841 -0.504522,1.618211 -1.183449,3.784376 -1.673438,4.812561 -0.511789,-2.880353 0.06644,-13.432072 0.290672,-17.495556 l 0.0031,-0.06567 C 40.319565,7.197292 40.340328,6.7016701 40.307108,6.48413 40.060038,4.9356963 39.431979,3.9187992 38.439543,3.4642225 37.436726,3.002463 36.134931,3.2076894 34.731402,4.041935 34.0286,4.4626493 33.833434,5.9053914 33.230291,12.445959 l -0.0021,0.02873 C 32.895992,16.068206 32.129864,24.342937 31.188296,25.722059 30.126332,23.79293 28.664668,12.838968 28.033495,8.0972101 27.592297,4.7766458 27.334845,2.8700919 27.16148,2.2944317 26.798141,1.0877 25.261733,0.06156768 23.740896,0.00410426 22.474399,-0.05746368 21.436285,0.57873838 20.940068,1.684909 c -0.928074,1.0210017 -0.600031,4.4041601 0.425625,12.418254 0.487915,3.81516 1.494883,11.692778 0.861634,12.577304 C 20.961868,26.543991 18.791173,21.609321 15.775453,12.0078 14.928353,9.3193337 14.666749,8.5107414 14.407221,8.1567257 13.894393,6.9233147 12.152438,5.97209 10.591115,6.0798339 a 3.3043145,3.2661793 0 0 0 -0.391368,0.050281 C 9.3827524,6.290191 7.5172629,7.034137 7.9158984,10.46655 c 1.1004001,4.758175 2.2973446,8.25113 3.4579546,11.642497 l 0.02388,0.06772 c 0.694499,2.031742 1.351624,3.950609 1.962033,6.079834 1.437788,5.028049 0.878245,8.147491 0.872016,8.183406 -0.04776,0.320153 -0.14845,0.516144 -0.298976,0.584895 a 0.57719099,0.57052958 0 0 1 -0.202432,0.04618 c -0.456771,0.03078 -1.139849,-0.266794 -1.491769,-0.46176 -0.805578,-1.520728 -4.812694,-8.767274 -8.4440144,-9.772884 l -0.1308022,-0.03797 -0.1318404,0.01231 c -1.3318993,0.124162 -2.3108401,0.621836 -2.90983158,1.478656 -0.9488355,1.354495 -0.55539057,3.08045 -0.46092227,3.427282 l 0.0539819,0.123136 c 0.0290672,0.05233 2.94201315,5.299974 3.39255425,7.741143 0.3882543,2.09331 2.3990798,4.361062 4.0164603,6.183473 l 0.066439,0.07491 c 0.5273616,0.595157 0.9820552,1.111301 1.3412425,1.588453 4.6912329,4.836161 12.1095899,8.90375 12.1698009,8.937612 0.925997,0.674169 1.439865,1.326789 1.494885,1.888084 a 0.8284144,0.81885361 0 0 1 -0.166099,0.595157 l -0.160908,0.166233 1.025656,0.985087 19.571549,-1.358599 0.834644,-3.780272 c 2.58075,-10.673828 2.041968,-19.775622 2.032626,-19.835138 0.01038,-0.335545 0.732908,-3.574019 1.314251,-6.190656 l 0.01765,-0.0667 C 48.3255,23.555887 49.766401,17.07073 50.043576,14.604934 50.163998,13.55007 49.480919,12.581401 48.304737,12.141191 Z"
     id="path2"
     style="stroke-width:1.03211" />
</svg>
